<?xml version="1.0" encoding="UTF-8" standalone="no"?>
<!DOCTYPE svg PUBLIC "-//W3C//DTD SVG 1.1//EN" "http://www.w3.org/Graphics/SVG/1.1/DTD/svg11.dtd">
<svg width="100%" height="100%" viewBox="0 0 76 73" version="1.1" xmlns="http://www.w3.org/2000/svg" xmlns:xlink="http://www.w3.org/1999/xlink" xml:space="preserve" xmlns:serif="http://www.serif.com/" style="fill-rule:evenodd;clip-rule:evenodd;stroke-linejoin:round;stroke-miterlimit:2;">
    <g id="Artboard1" transform="matrix(0.926035,0,0,0.896562,-12.7655,-16.923)">
        <rect x="13.785" y="18.875" width="81.82" height="81.372" style="fill:none;"/>
        <g transform="matrix(1.07987,0,0,1.11537,1.9254,3.77828)">
            <path d="M74.801,71.398C87.602,58.597 87.602,37.898 74.801,25.097C62,12.296 41.301,12.296 28.5,25.097C18.5,35.097 16.102,50.597 22.5,63.199C20.199,70 16.699,80.699 16.699,80.801L15.598,84.403L36.399,77.301C49.001,83.899 64.7,81.5 74.801,71.399L74.801,71.398ZM36.5,35.601L39.301,32.8C40.301,31.8 41.902,31.8 42.902,32.8L46.504,36.402C47.504,37.402 47.504,39.003 46.504,40.003L44.305,42.203C44.305,42.203 43.703,45.402 48.703,50.402L49.203,50.902C54.203,56.003 57.402,55.3 57.402,55.3L59.602,53.101C60.602,52.101 62.203,52.101 63.203,53.101L66.805,56.703C67.805,57.703 67.805,59.304 66.805,60.304L64,63.101C63,64.101 61.602,64.601 60.102,64.402C56.801,63.902 50.403,62.203 44.301,56.003L43.5,55.203C37.301,49.101 35.602,42.703 35.102,39.402C35,38.101 35.398,36.601 36.5,35.601L36.5,35.601Z" style="fill:rgb(211,232,236);fill-rule:nonzero;"/>
        </g>
    </g>
</svg>
